<svg xmlns="http://www.w3.org/2000/svg" viewBox="0 0 64 64"><defs><style>.cls-1,.cls-2{fill:none;}.cls-2{stroke:#55546b;stroke-miterlimit:10;stroke-width:1.5px;}</style></defs><g id="Capa_2" data-name="Capa 2"><g id="Capa_3" data-name="Capa 3"><rect class="cls-1" width="64" height="64"/></g><g id="Capa_4" data-name="Capa 4"><path class="cls-2" d="M37,53H47s4,0,4-5V20s1-5-5-5H37"/><path class="cls-2" d="M26.5,39.5h11a1,1,0,0,0,1-1v-8a1,1,0,0,0-1-1h-11V21.18a1,1,0,0,0-1.75-.66L14.07,32.85a1,1,0,0,0,0,1.3L24.75,46.48a1,1,0,0,0,1.75-.65Z"/></g></g></svg>